<svg width="194" height="94" viewBox="0 0 194 94" fill="none" xmlns="http://www.w3.org/2000/svg">
<path fill-rule="evenodd" clip-rule="evenodd" d="M8.99305 34.9187C8.96199 35.0246 8.95524 35.1359 8.97272 35.2446L15.2747 74.4092C15.3771 75.0457 16.1945 75.289 16.6509 74.8185L26.3379 64.8407C26.5063 64.6673 26.5826 64.4288 26.5448 64.1937L19.4293 19.9755C19.3288 19.3505 18.5382 19.1036 18.0911 19.5662C13.944 23.858 10.7464 28.9487 8.99305 34.9187ZM3.8269 54.6165C4.02684 53.7939 5.24466 53.8398 5.37903 54.6746L9.69306 81.4841C9.73124 81.7213 9.65293 81.962 9.48116 82.1359L3.72957 87.9526C3.40681 88.279 2.86191 88.2724 2.5824 87.9107C-1.37024 82.7981 -0.652503 73.0466 3.8269 54.6165ZM74.2277 84.0279C75.0524 84.0257 75.3205 85.0453 74.5787 85.3935C60.9911 91.7782 43.1162 93.3246 27.1093 93.3841C20.6351 93.4081 15.4136 93.2469 11.347 92.4649C10.7436 92.3487 10.5323 91.6406 10.9596 91.2138L17.7872 84.3909C17.9377 84.2406 18.1449 84.1555 18.3616 84.155L74.2277 84.0279ZM85.7733 77.7795C85.6243 77.9547 85.4001 78.0526 85.1651 78.0513L25.8885 77.7961C25.184 77.7931 24.8263 76.9775 25.3148 76.4878L35.8267 65.9477C35.9976 65.776 36.2408 65.6904 36.486 65.7144L88.7115 70.8977C89.2459 70.9506 89.5761 71.4871 89.3555 71.9602C88.2849 74.2589 87.0898 76.2318 85.7733 77.7795ZM25.5211 13.3281C25.2766 13.4963 25.1531 13.7837 25.1991 14.0699L32.1274 57.125C32.2295 57.7597 33.043 58.0039 33.5007 57.5378L45.9299 44.8703C46.1002 44.6968 46.1776 44.457 46.1396 44.2206L40.1305 6.87652C40.0519 6.38855 39.5254 6.09569 39.0507 6.28069C34.2613 8.14716 29.6593 10.4813 25.5211 13.3281ZM47.0299 3.63112C46.645 3.73837 46.4045 4.10576 46.4661 4.48766L51.7226 37.1544C51.825 37.789 52.6383 38.0334 53.0962 37.567L65.5253 24.8997C65.6956 24.7261 65.773 24.4863 65.735 24.25L62.0744 1.50247C62.0087 1.0934 61.6206 0.80664 61.1945 0.856262C56.6078 1.39049 51.8019 2.30172 47.0299 3.63112ZM69.5092 0.285749C69.0278 0.294574 68.6678 0.712545 68.7416 1.17141L71.318 17.1838C71.4204 17.8184 72.2337 18.0628 72.6916 17.5964L86.2909 3.73627C86.6555 3.36478 86.5522 2.76193 86.0663 2.55747C82.3083 0.976826 76.4169 0.159065 69.5092 0.285749ZM92.3073 9.37028C92.0959 8.87414 91.4328 8.76138 91.0402 9.14106L81.4203 18.4405C80.9438 18.901 81.2346 19.6884 81.9053 19.755L94.2026 20.9741C94.7166 21.0251 95.1455 20.6002 95.0726 20.1069C94.4571 15.9434 93.5387 12.2623 92.3073 9.37028ZM95.8651 28.2318C95.8447 27.8529 95.5399 27.5462 95.1487 27.5077L74.8595 25.5123C74.6077 25.4875 74.3582 25.5793 74.187 25.7598L61.8004 38.8343C61.3512 39.3086 61.6632 40.074 62.3271 40.1258L94.9177 42.664C95.3633 42.6986 95.7523 42.3748 95.7791 41.9444C96.0685 37.2833 96.1002 32.6256 95.8651 28.2318ZM95.0332 49.881C95.0884 49.4472 94.7574 49.058 94.3063 49.0221L55.318 45.9139C55.0698 45.8942 54.8257 45.9873 54.6581 46.1655L42.9319 58.6618C42.4913 59.131 42.7906 59.8837 43.4432 59.9488L91.2807 64.7145C91.4682 64.7333 91.6031 64.8342 91.7834 64.7813C91.9401 64.7354 92.0841 64.5511 92.1285 64.3991C93.4083 59.9899 94.3806 55.0272 95.0332 49.881Z" fill="black"/>
<path fill-rule="evenodd" clip-rule="evenodd" d="M107.96 36.6738C107.96 36.9151 108.163 37.1107 108.413 37.1107H113.226C113.476 37.1107 113.678 37.3062 113.678 37.5475V58.0801C113.678 58.3213 113.881 58.517 114.131 58.517H115.261C115.511 58.517 115.714 58.3213 115.714 58.0801V37.5475C115.714 37.3062 115.916 37.1107 116.166 37.1107H120.913C121.163 37.1107 121.366 36.9151 121.366 36.6738V35.8382C121.366 35.5969 121.163 35.4014 120.913 35.4014H108.413C108.163 35.4014 107.96 35.5969 107.96 35.8382V36.6738ZM123.649 35.4015C123.398 35.4015 123.196 35.5971 123.196 35.8384V58.0801C123.196 58.3213 123.398 58.517 123.649 58.517H124.745C124.995 58.517 125.198 58.3213 125.198 58.0801V50.3141C125.198 49.4566 125.43 48.6803 125.893 47.9765L125.896 47.9721C126.36 47.2474 126.991 46.6895 127.796 46.2915L127.8 46.2898L127.804 46.2876C128.611 45.8713 129.499 45.6616 130.477 45.6616C132.126 45.6616 133.333 46.0805 134.169 46.8665L134.172 46.8699L134.176 46.873C135.031 47.6419 135.492 48.7668 135.492 50.3141V58.0801C135.492 58.3213 135.695 58.517 135.945 58.517H137.041C137.292 58.517 137.494 58.3213 137.494 58.0801V50.3141C137.494 48.3566 136.896 46.7813 135.639 45.6511C134.401 44.5192 132.656 43.9819 130.477 43.9819C129.236 43.9819 128.02 44.3043 126.834 44.9303C126.554 45.0766 126.291 45.2335 126.047 45.4008C125.715 45.628 125.198 45.4139 125.198 45.0212V35.8384C125.198 35.5971 124.995 35.4015 124.745 35.4015H123.649ZM141.032 47.6506C140.281 48.7716 139.909 50.0363 139.909 51.4334C139.909 52.7387 140.284 53.9706 141.03 55.1226L141.033 55.1278C141.798 56.275 142.81 57.1959 144.064 57.8857L144.068 57.8875C145.349 58.5795 146.721 58.9285 148.174 58.9285C149.458 58.9285 150.621 58.7428 151.655 58.3619L151.66 58.3606L151.664 58.3588C152.703 57.9552 153.649 57.3213 154.502 56.4712C154.58 56.3934 154.624 56.2894 154.624 56.1811V54.6307C154.624 54.2048 154.057 54.0305 153.802 54.3782L153.758 54.4381C153.115 55.3157 152.309 56.0016 151.341 56.5022C150.374 57.0015 149.365 57.2479 148.306 57.2479C147.499 57.2479 146.789 57.1365 146.171 56.922C145.815 56.787 145.448 56.6097 145.069 56.3882C144.822 56.2427 144.798 55.9098 145.011 55.7198L154.584 47.2186C154.758 47.0639 154.767 46.8009 154.603 46.6358C152.912 44.9268 150.838 44.0575 148.406 44.0575C146.836 44.0575 145.394 44.3694 144.088 44.9989L144.085 45.0006C142.8 45.631 141.78 46.5165 141.032 47.6506ZM141.924 51.3324C141.924 52.5657 142.284 53.6465 143.003 54.5875C143.155 54.7867 143.451 54.8015 143.639 54.6333L151.856 47.2802C152.064 47.0932 152.046 46.7673 151.806 46.6196C151.428 46.3868 151.063 46.2085 150.711 46.0823C150.03 45.8377 149.083 45.707 148.359 45.7097C147.124 45.7145 146.033 45.9587 145.074 46.434C144.085 46.9263 143.223 47.6559 142.719 48.5003C142.192 49.3303 141.924 50.2709 141.924 51.3324ZM131.166 76.9484C130.046 78.6176 129.493 80.5014 129.493 82.5817C129.493 84.5252 130.052 86.36 131.162 88.076L131.167 88.0834C132.306 89.7916 133.813 91.1633 135.681 92.1908L135.686 92.1934C137.595 93.2235 139.637 93.7434 141.802 93.7434C143.713 93.7434 145.445 93.4668 146.986 92.8998L146.992 92.8976L146.999 92.895C148.547 92.2939 149.954 91.3503 151.225 90.0838C151.341 89.968 151.406 89.8134 151.406 89.6522V87.3434C151.406 86.7087 150.562 86.4492 150.182 86.9668L150.117 87.056C149.159 88.3635 147.96 89.3848 146.518 90.1301C145.078 90.8736 143.575 91.2406 141.998 91.2406C140.796 91.2406 139.739 91.0746 138.819 90.7553C138.288 90.5547 137.741 90.2904 137.178 89.9602C136.808 89.7435 136.774 89.2477 137.092 88.965L151.347 76.3049C151.607 76.0747 151.619 75.6833 151.376 75.4369C148.858 72.8922 145.769 71.5973 142.146 71.5973C139.809 71.5973 137.661 72.0622 135.716 72.9997L135.711 73.0018C133.798 73.9406 132.279 75.2591 131.166 76.9484ZM132.494 82.431C132.494 84.2679 133.029 85.8778 134.101 87.2787C134.327 87.5754 134.768 87.5972 135.048 87.3469L147.284 76.3966C147.595 76.1184 147.568 75.633 147.211 75.4128C146.648 75.066 146.104 74.8008 145.58 74.6125C144.565 74.2486 143.155 74.0538 142.077 74.0582C140.237 74.0651 138.612 74.4286 137.185 75.1363C135.712 75.8698 134.428 76.9563 133.678 78.2135C132.893 79.4498 132.494 80.8504 132.494 82.431ZM113.236 64.0022C113.236 63.7606 113.439 63.5653 113.689 63.5653H115.847C116.097 63.5653 116.3 63.7606 116.3 64.0022V90.3914C116.3 90.6325 116.503 90.8282 116.753 90.8282H127.392C127.643 90.8282 127.845 91.0239 127.845 91.2651V92.9649C127.845 93.206 127.643 93.4017 127.392 93.4017H113.689C113.439 93.4017 113.236 93.206 113.236 92.9649V64.0022ZM187.258 72.0097C187.137 72.0097 187.039 71.9154 187.039 71.7992C187.039 70.7407 187.31 69.7927 187.842 68.9413C188.411 68.0549 189.166 67.3799 190.111 66.9024L190.118 66.8985L190.125 66.895C191.074 66.3883 192.11 66.1349 193.246 66.1349H193.504C193.754 66.1349 193.957 65.9396 193.957 65.698V64.0432C193.957 63.8021 193.754 63.6064 193.504 63.6064H193.246C191.565 63.6064 190.001 63.9768 188.564 64.7182C187.162 65.4294 186.044 66.4184 185.218 67.6752L185.216 67.6796C184.419 68.9159 184.025 70.2942 184.025 71.7992V92.964C184.025 93.2056 184.228 93.4009 184.478 93.4009H186.587C186.837 93.4009 187.039 93.2056 187.039 92.964V74.9751C187.039 74.734 187.242 74.5383 187.492 74.5383H193.504C193.754 74.5383 193.957 74.3425 193.957 74.1014V72.4466C193.957 72.2054 193.754 72.0097 193.504 72.0097H187.258ZM171.517 90.2053C170.07 90.9789 168.506 91.3642 166.81 91.3642C165.114 91.3642 163.531 90.9785 162.047 90.2022C160.554 89.3914 159.362 88.3342 158.462 87.0258C157.599 85.6938 157.17 84.2723 157.17 82.7503C157.17 81.2274 157.599 79.805 158.464 78.4722C159.367 77.1301 160.546 76.0585 162.005 75.2495C163.488 74.4452 165.069 74.0468 166.76 74.0468C168.453 74.0468 170.015 74.4456 171.463 75.2482L171.467 75.2508L171.472 75.253C172.926 76.0314 174.085 77.0851 174.954 78.4232C175.821 79.757 176.251 81.1811 176.251 82.7057C176.251 84.2623 175.819 85.7004 174.954 87.0324L174.952 87.0363C174.117 88.3416 172.976 89.3962 171.517 90.2053ZM155.846 77.1528C156.969 75.419 158.501 74.0442 160.431 73.035C162.365 72.0246 164.462 71.5183 166.71 71.5183C169.001 71.5183 171.166 72.0735 173.195 73.1722C173.985 73.5885 174.688 74.0582 175.301 74.5806C175.614 74.848 176.151 74.6444 176.151 74.2408V72.4466C176.151 72.2054 176.354 72.0097 176.604 72.0097H178.713C178.963 72.0097 179.166 72.2054 179.166 72.4466V92.9644C179.166 93.2056 178.963 93.4013 178.713 93.4013H176.604C176.354 93.4013 176.151 93.2056 176.151 92.9644V91.113C176.151 90.7094 175.616 90.5076 175.306 90.7793C174.645 91.359 173.891 91.8754 173.047 92.3279L173.043 92.3297C171.077 93.3698 168.962 93.8928 166.71 93.8928C164.462 93.8928 162.365 93.3864 160.431 92.376C158.503 91.3686 156.972 90.0095 155.847 88.3054L155.845 88.301C154.72 86.5658 154.155 84.6969 154.155 82.7057C154.155 80.715 154.72 78.8601 155.846 77.1528Z" fill="black"/>
</svg>
